HIERARCHY
ROOT Hips
{
	OFFSET -0.001795 -0.223333 0.028219
	CHANNELS 6 Xposition Yposition Zposition Zrotation Yrotation Xrotation 
	JOINT LeftUpLeg
	{
		OFFSET 0.069520 -0.091406 -0.006815
		CHANNELS 3 Zrotation Yrotation Xrotation
		JOINT LeftLeg
		{
			OFFSET 0.034277 -0.375199 -0.004496
			CHANNELS 3 Zrotation Yrotation Xrotation
			JOINT LeftFoot
			{
				OFFSET -0.013596 -0.397961 -0.043693
				CHANNELS 3 Zrotation Yrotation Xrotation
				JOINT LeftToe
				{
					OFFSET 0.026358 -0.055791 0.119288
					CHANNELS 3 Zrotation Yrotation Xrotation
					End Site
					{
						OFFSET 0.000000 0.000000 0.000000
					}
				}
			}
		}
	}
	JOINT RightUpLeg
	{
		OFFSET -0.067670 -0.090522 -0.004320
		CHANNELS 3 Zrotation Yrotation Xrotation
		JOINT RightLeg
		{
			OFFSET -0.038290 -0.382569 -0.008850
			CHANNELS 3 Zrotation Yrotation Xrotation
			JOINT RightFoot
			{
				OFFSET 0.015774 -0.398415 -0.042312
				CHANNELS 3 Zrotation Yrotation Xrotation
				JOINT RightToe
				{
					OFFSET -0.025372 -0.048144 0.123348
					CHANNELS 3 Zrotation Yrotation Xrotation
					End Site
					{
						OFFSET 0.000000 0.000000 0.000000
					}
				}
			}
		}
	}
	JOINT Spine
	{
		OFFSET -0.002533 0.108963 -0.026696
		CHANNELS 3 Zrotation Yrotation Xrotation
		JOINT Spine1
		{
			OFFSET 0.005487 0.135180 0.001092
			CHANNELS 3 Zrotation Yrotation Xrotation
			JOINT Spine2
			{
				OFFSET 0.001457 0.052922 0.025425
				CHANNELS 3 Zrotation Yrotation Xrotation
				JOINT Neck
				{
					OFFSET -0.002778 0.213870 -0.042857
					CHANNELS 3 Zrotation Yrotation Xrotation
					JOINT Head
					{
						OFFSET 0.005152 0.064970 0.051349
						CHANNELS 3 Zrotation Yrotation Xrotation
						End Site
						{
							OFFSET 0.000000 0.000000 0.000000
						}
					}
				}
				JOINT LeftShoulder
				{
					OFFSET 0.078845 0.121749 -0.034090
					CHANNELS 3 Zrotation Yrotation Xrotation
					JOINT LeftArm
					{
						OFFSET 0.090977 0.030469 -0.008868
						CHANNELS 3 Zrotation Yrotation Xrotation
						JOINT LeftForeArm
						{
							OFFSET 0.259612 -0.012772 -0.027456
							CHANNELS 3 Zrotation Yrotation Xrotation
							JOINT LeftHand
							{
								OFFSET 0.249234 0.008986 -0.001171
								CHANNELS 3 Zrotation Yrotation Xrotation
								End Site
								{
									OFFSET 0.000000 0.000000 0.000000
								}
							}
						}
					}
				}
				JOINT RightShoulder
				{
					OFFSET -0.081759 0.118833 -0.038615
					CHANNELS 3 Zrotation Yrotation Xrotation
					JOINT RightArm
					{
						OFFSET -0.096012 0.032551 -0.009143
						CHANNELS 3 Zrotation Yrotation Xrotation
						JOINT RightForeArm
						{
							OFFSET -0.253742 -0.013329 -0.021401
							CHANNELS 3 Zrotation Yrotation Xrotation
							JOINT RightHand
							{
								OFFSET -0.255298 0.007772 -0.005559
								CHANNELS 3 Zrotation Yrotation Xrotation
								End Site
								{
									OFFSET 0.000000 0.000000 0.000000
								}
							}
						}
					}
				}
			}
		}
	}
}
MOTION
Frames: 7
Frame Time: 0.050000
0.000000 0.956247 0.000000 -1.958243 -1.783895 -4.179416 4.941870 0.282097 5.697212 -0.859323 0.141403 -1.665678 0.822651 5.752972 11.750786 0.000000 0.000000 0.000000 -0.516285 -0.333677 3.649261 0.891806 0.047598 4.205273 -2.763889 -11.072849 14.934723 0.000000 0.000000 0.000000 -2.119552 -0.319980 14.631516 9.110831 -1.073123 -30.381204 -2.297460 4.439629 26.669913 1.519364 0.235202 -13.268780 0.000000 0.000000 0.000000 -40.716948 -0.065963 -5.011400 -36.768751 -1.189816 -5.420140 -10.986148 -26.695266 3.727447 0.000000 0.000000 0.000000 36.336655 3.422668 1.750413 40.381186 2.688050 -5.791364 4.231589 30.408538 2.531938 0.000000 0.000000 0.000000 
0.000206 0.955680 -0.000667 -2.378902 -2.076768 -3.775752 5.645624 0.271373 6.209337 -1.343612 0.226512 -3.299229 0.889578 5.870580 11.885894 0.000000 0.000000 0.000000 -0.180746 -0.247109 2.585184 1.225813 0.039674 5.371690 -2.860377 -11.166687 14.407539 0.000000 0.000000 0.000000 -2.303880 -0.294066 14.657692 9.130348 -1.058066 -30.580486 -1.905512 3.798551 26.272216 1.805976 -0.152529 -12.892153 0.000000 0.000000 0.000000 -40.889301 0.688364 -5.235001 -36.774168 -1.183519 -5.515781 -11.556910 -27.050253 3.949036 0.000000 0.000000 0.000000 36.036876 3.435102 1.323111 41.412849 1.396900 -6.145632 3.429085 31.798186 2.439190 0.000000 0.000000 0.000000 
-0.000319 0.954797 -0.001666 -2.032465 -1.979348 -3.618429 5.771522 0.228948 5.459522 -2.171112 0.284089 -2.439737 0.890216 5.800796 11.607985 0.000000 0.000000 0.000000 -0.628855 -0.080517 0.998390 1.453508 0.075410 7.657794 -3.082400 -11.512088 14.242568 0.000000 0.000000 0.000000 -2.312838 -0.305035 15.501710 9.103238 -0.844562 -32.404741 -2.285266 3.583127 27.476117 1.373887 0.192917 -13.369684 0.000000 0.000000 0.000000 -40.629746 0.451033 -4.803834 -35.993582 -1.548217 -5.460039 -12.556244 -27.859825 4.331514 0.000000 0.000000 0.000000 36.430733 3.297150 1.155684 40.710169 1.193347 -6.194036 3.773232 31.641385 2.496935 0.000000 0.000000 0.000000 
-0.002034 0.954251 -0.002453 -1.975049 -2.295507 -3.645190 5.854439 0.222491 5.224099 -2.264610 0.287559 -1.958643 1.079114 6.041376 11.477673 0.000000 0.000000 0.000000 -0.350219 0.016099 -0.087055 1.432281 0.155751 9.861666 -3.522954 -12.105920 13.094101 0.000000 0.000000 0.000000 -3.039087 -0.208585 16.502132 10.650288 -0.898211 -34.106632 -2.590371 3.567140 28.540310 1.575371 0.068177 -14.249491 0.000000 0.000000 0.000000 -41.341973 1.389987 -5.524846 -35.197062 -1.995525 -5.337894 -13.776947 -28.963982 4.851071 0.000000 0.000000 0.000000 36.584185 3.643120 1.358556 40.220728 1.194148 -6.204668 3.331187 32.031032 2.408725 0.000000 0.000000 0.000000 
-0.005613 0.953171 -0.002958 -1.730359 -2.757452 -4.145773 5.775612 0.252866 5.458692 -2.217170 0.275849 -1.309510 1.335532 6.356880 11.250889 0.000000 0.000000 0.000000 -0.397701 0.098011 -0.933987 1.408347 0.262560 12.475007 -3.348004 -11.630330 12.047893 0.000000 0.000000 0.000000 -3.314692 -0.164305 17.854613 11.369913 -1.168907 -32.982355 -3.032710 4.091304 26.518440 1.307502 0.248954 -13.049758 0.000000 0.000000 0.000000 -40.934574 1.594829 -5.902177 -34.917940 -1.951038 -5.087656 -14.598961 -30.023296 5.216670 0.000000 0.000000 0.000000 36.757595 3.331988 1.129084 40.229260 0.856501 -6.138262 3.730751 32.158704 2.515763 0.000000 0.000000 0.000000 
-0.011679 0.951419 -0.002548 -1.428144 -3.130147 -4.410400 5.819674 0.260308 5.390056 -2.208290 0.265491 -0.493672 1.584204 6.644626 10.907230 0.000000 0.000000 0.000000 -0.373665 0.151364 -1.494960 1.329450 0.362036 14.312861 -3.089897 -10.880142 10.664085 0.000000 0.000000 0.000000 -3.994858 -0.044322 18.687326 12.306099 -1.160868 -34.195019 -3.229668 4.010423 27.829235 1.318435 0.334530 -14.865531 0.000000 0.000000 0.000000 -41.067665 2.130183 -6.099110 -34.953238 -2.673389 -5.078961 -14.121291 -30.955183 5.296433 0.000000 0.000000 0.000000 36.562597 3.780697 1.367584 40.403178 1.242410 -6.134864 3.210571 31.348822 2.299116 0.000000 0.000000 0.000000 
-0.020570 0.949700 -0.001167 -1.159261 -3.851109 -4.826270 5.867408 0.288296 5.572406 -1.853834 0.213365 0.417637 1.984237 7.191230 10.694612 0.000000 0.000000 0.000000 -0.111987 0.145360 -1.454417 1.570072 0.369740 15.273925 -3.343344 -11.133664 9.431203 0.000000 0.000000 0.000000 -3.886786 -0.038699 18.998666 12.318514 -1.328417 -33.118435 -3.655696 4.189782 26.939384 1.537406 0.012103 -13.325222 0.000000 0.000000 0.000000 -41.049756 2.455442 -6.281055 -34.554131 -2.689452 -4.990411 -13.786462 -31.438218 5.282909 0.000000 0.000000 0.000000 36.603833 3.991871 1.357920 40.927019 0.873834 -6.211537 3.105533 31.544021 2.278568 0.000000 0.000000 0.000000 
